<svg xmlns="http://www.w3.org/2000/svg" width="296.992" height="78.851" viewBox="0 0 296.992 78.851"><path d="M563.361,662.705c2.8,0,5.123-1.635,5.123-4.147,0-2.34-2.069-3.352-4.256-4.238-1.879-.723-3.479-1.238-3.479-2.647a2.678,2.678,0,0,1,2.9-2.331,3.193,3.193,0,0,1,2.955,1.834l1.238-.831a4.262,4.262,0,0,0-4.174-2.62c-2.557,0-4.572,1.672-4.572,3.912s2,3.126,3.786,3.822c1.861.7,3.948,1.491,3.948,3.126,0,1.437-1.554,2.467-3.46,2.467a4.222,4.222,0,0,1-3.7-2.078l-1.265.931A5.3,5.3,0,0,0,563.361,662.705Zm-14.643,0c2.8,0,5.123-1.635,5.123-4.147,0-2.34-2.069-3.352-4.256-4.238-1.879-.723-3.479-1.238-3.479-2.647a2.678,2.678,0,0,1,2.9-2.331,3.193,3.193,0,0,1,2.954,1.834l1.238-.831a4.261,4.261,0,0,0-4.174-2.62c-2.557,0-4.572,1.672-4.572,3.912s2,3.126,3.786,3.822c1.861.7,3.948,1.491,3.948,3.126,0,1.437-1.554,2.467-3.461,2.467a4.222,4.222,0,0,1-3.7-2.078l-1.265.931A5.3,5.3,0,0,0,548.718,662.705Zm-9.971-13.146v-1.617H530.19v14.565h8.557v-1.635h-6.912v-5.06h5.99v-1.644h-5.99v-4.608Zm-22.4,5.873v-5.864h2.71a2.945,2.945,0,1,1,0,5.873Zm8.827,7.075-4.328-5.873a4.269,4.269,0,0,0,3.063-4.048A4.785,4.785,0,0,0,519,647.942h-4.3l.009,14.565h1.644v-5.683h2.72l4.066,5.683ZM508.99,654.79h-6.921v1.482h5.222a2.8,2.8,0,0,1,.009.289c0,2.575-2.241,4.481-5.087,4.481a5.828,5.828,0,1,1-.136-11.655,6.728,6.728,0,0,1,4.364,1.906l.922-1.364a8.3,8.3,0,0,0-5.277-2.187,7.481,7.481,0,1,0,.063,14.963,6.744,6.744,0,0,0,6.9-6.876A9.363,9.363,0,0,0,508.99,654.79Zm-26.759,6.244a5.823,5.823,0,1,1,5.837-5.81A5.823,5.823,0,0,1,482.231,661.034Zm0,1.662a7.481,7.481,0,1,0-7.472-7.463A7.5,7.5,0,0,0,482.231,662.7Zm-20.552-7.264v-5.864h2.71a2.945,2.945,0,1,1,0,5.873Zm8.827,7.075-4.328-5.873a4.269,4.269,0,0,0,3.063-4.048,4.785,4.785,0,0,0-4.906-4.644h-4.3l.009,14.565h1.644v-5.683h2.72l4.066,5.683Zm-20.932-6.994L446.6,655.5v-5.936h2.972a3.3,3.3,0,0,1,3.479,3.054A3.222,3.222,0,0,1,449.575,655.513Zm-4.617,6.994H446.6v-5.376h2.972c2.819,0,5.123-2.015,5.123-4.491a4.938,4.938,0,0,0-5.123-4.7h-4.617Zm-22.6-7.075v-5.864h2.711a2.945,2.945,0,1,1,0,5.873Zm8.828,7.075-4.328-5.873a4.27,4.27,0,0,0,3.063-4.048,4.785,4.785,0,0,0-4.906-4.644h-4.3l.009,14.565h1.644v-5.683h2.72l4.066,5.683Zm-23.615-1.473a5.823,5.823,0,1,1,5.837-5.81A5.823,5.823,0,0,1,407.571,661.034Zm0,1.662a7.481,7.481,0,1,0-7.472-7.463A7.5,7.5,0,0,0,407.571,662.7Zm-11.725-13.155v-1.635H387.29v14.619h1.644v-6.487h5.99v-1.644h-5.99v-4.852Zm-29.783,11.33v-12.93h-1.644v14.565H373.2v-1.635Zm-16.9-2.187,3.343-7.49,3.334,7.49Zm8.375,3.822h1.789l-6.74-14.791h-.181l-6.731,14.791h1.78l1.066-2.394h7.951Zm-14.082-14.565h-10.1v1.626h4.237v12.939h1.644V649.568h4.22Zm-17.074,14.565h1.645V647.942h-1.645Zm-10.459-6.994-2.973-.009v-5.936h2.973a3.3,3.3,0,0,1,3.479,3.054A3.222,3.222,0,0,1,315.922,655.513Zm-4.617,6.994h1.645v-5.376h2.973c2.819,0,5.123-2.015,5.123-4.491a4.938,4.938,0,0,0-5.123-4.7h-4.617Zm-15.257-3.822,3.343-7.49,3.334,7.49Zm8.376,3.822h1.789l-6.74-14.791h-.181l-6.731,14.791h1.78l1.066-2.394h7.951Zm-20.886.19a6.938,6.938,0,0,0,5-2.141l-.949-1.319a5.834,5.834,0,1,1-.009-8.005l.958-1.292a7.284,7.284,0,0,0-5.006-2.2,7.481,7.481,0,1,0,.009,14.962Z" transform="translate(-275.279 -583.855)"/><g transform="translate(175.03 0.185)"><path d="M1044.212,391.406a23.556,23.556,0,0,1,23.2-23.286c5.822.083,10.978,2.384,15.663,6.9l-5.184,7.069c-3.05-2.994-6.709-4.823-10.562-4.823a14.5,14.5,0,0,0-14.027,14.193c0,7.956,7.1,14.11,14,14.11,4.1,0,7.651-2.19,10.618-5.1l5.156,7.263c-3.936,3.909-8.732,6.847-15.5,6.847A23.439,23.439,0,0,1,1044.212,391.406Z" transform="translate(-1044.212 -367.872)" fill="#05d6ae"/><path d="M1256.257,407.235h-18.174l-2.9,6.34h-9.862l21.7-46.55h.282l21.725,46.55h-9.89Zm-3.55-7.777-5.523-12.145-5.551,12.145Z" transform="translate(-1184.233 -367.026)" fill="#05d6ae"/><path d="M1438.907,368.924h16.2c8.929,0,16.226,7.011,16.226,15.6,0,8.557-7.3,15.539-16.226,15.539h-6.925v15h-9.272Zm23.151,15.511c0-3.491-3.119-6.324-6.954-6.324h-6.925v12.763l6.925.029A6.706,6.706,0,0,0,1462.058,384.435Z" transform="translate(-1349.368 -368.493)" fill="#05d6ae"/></g><path d="M272.662,368.44h16.275c8.971,0,16.3,7.045,16.3,15.671,0,8.6-7.332,15.613-16.3,15.613h-6.959v15.067h-9.316Zm23.262,15.585c0-3.508-3.134-6.355-6.987-6.355h-6.959v12.824l6.959.029A6.738,6.738,0,0,0,295.924,384.025Z" transform="translate(-272.662 -367.934)" fill="#5765f6"/><path d="M598.935,392.026a23.056,23.056,0,1,1,23.014,22.96A23.142,23.142,0,0,1,598.935,392.026Zm37.093-.055a14.051,14.051,0,1,0-14.078,14A14.105,14.105,0,0,0,636.028,391.971Z" transform="translate(-524.918 -368.29)" fill="#5765f6"/><path d="M871.141,393.043l-9.356-8.54-9.355,8.54a.591.591,0,0,0,.4,1.027h4.144V402.4a13.8,13.8,0,0,1-7.342,1.872c-8.876,0-15.018-6.481-15.018-14.371a14.5,14.5,0,0,1,14.173-14.455c4.058,0,8.115,1.973,11.665,5.438l5.072-7.58a25.032,25.032,0,0,0-16.625-7.1,23.625,23.625,0,1,0,.133,47.249v.079c7.282,0,13.36-2.175,17.568-6.678V394.07h4.144A.591.591,0,0,0,871.141,393.043Z" transform="translate(-699.941 -366.209)" fill="#5765f6"/><path d="M473,414.962l-13.169-18.43c4.974-1.754,8.568-6.958,8.568-12.91,0-8.338-7.1-15.009-15.756-15.009H437.522l.006,9.23h15.291a5.838,5.838,0,1,1,0,11.673l-15.3-.021v8.129h8.912a6.584,6.584,0,0,1,5.46,2.905l5.94,8.815,3.782,5.618Z" transform="translate(-400.123 -368.068)" fill="#5765f6"/></svg>